{
  "accessors": [
    {
      "bufferView": 0,
      "byteOffset": 0,
      "componentType": 5123,
      "count": 972,
      "type": "SCALAR",
      "max": [971],
      "min": [0]
    },
    {
      "bufferView": 1,
      "byteOffset": 0,
      "componentType": 5126,
      "count": 972,
      "type": "VEC3",
      "max": [19.709585189819336, 7.915220260620117, 35.334800720214844],
      "min": [-19.677309036254883, -21.013792037963867, -41.20415496826172],
      "name": "POSITION"
    },
    {
      "bufferView": 1,
      "byteOffset": 12,
      "componentType": 5126,
      "count": 972,
      "type": "VEC3",
      "max": [1.0000044107437134, 1.0000044107437134, 1.0000044107437134],
      "min": [-1.0000044107437134, -1.0000044107437134, -0.9830396771430969],
      "name": "NORMAL"
    },
    {
      "bufferView": 1,
      "byteOffset": 24,
      "componentType": 5126,
      "count": 972,
      "type": "VEC2",
      "max": [0.9907788634300232, 0.9921780228614807],
      "min": [0.009221130982041359, 0.007822036743164062],
      "name": "TEXCOORD_0"
    }
  ],
  "asset": { "generator": "Aspose.3D 23.11.1", "version": "2.0" },
  "buffers": [
    {
      "uri": "data:application/octet-stream;base64,",
      "byteLength": 33056
    }
  ],
  "bufferViews": [
    { "buffer": 0, "byteOffset": 0, "byteLength": 1944, "target": 34963 },
    {
      "buffer": 0,
      "byteOffset": 1948,
      "byteLength": 31104,
      "byteStride": 32,
      "target": 34962
    }
  ],
  "images": [
    {
      "uri": "data:image/png;base64,"
    }
  ],
  "materials": [
    {
      "name": "CAR_07",
      "pbrMetallicRoughness": {
        "baseColorFactor": [1, 1, 1, 1],
        "baseColorTexture": { "index": 0, "texCoord": 0 },
        "metallicFactor": 0.5,
        "roughnessFactor": 0.5
      },
      "emissiveFactor": [0, 0, 0],
      "alphaMode": "OPAQUE",
      "doubleSided": false
    }
  ],
  "meshes": [
    {
      "primitives": [
        {
          "attributes": { "POSITION": 1, "NORMAL": 2, "TEXCOORD_0": 3 },
          "indices": 0,
          "material": 0,
          "mode": 4
        }
      ]
    }
  ],
  "nodes": [
    {
      "matrix": [
        4.769006193668008e-8, 0, 0.8001064716553731, 0, 0, 1, 0, 0,
        -0.9999999999999982, 0, 5.9604644664368316e-8, 0, -2.9252647004166707,
        21.180561574190385, -0.2540371553457108, 1
      ],
      "mesh": 0,
      "name": "Car_04"
    },
    {
      "children": [0],
      "matrix": [0.01, 0, 0, 0, 0, 0.01, 0, 0, 0, 0, 0.01, 0, 0, 0, 0, 1],
      "name": "Node #1"
    }
  ],
  "samplers": [
    { "magFilter": 9729, "minFilter": 9987, "wrapS": 10497, "wrapT": 10497 }
  ],
  "scene": 0,
  "scenes": [{ "nodes": [1] }],
  "textures": [{ "sampler": 0, "source": 0, "name": "" }]
}
